<?xml version="1.0" standalone="no"?>
<!DOCTYPE svg PUBLIC "-//W3C//DTD SVG 20010904//EN"
 "http://www.w3.org/TR/2001/REC-SVG-20010904/DTD/svg10.dtd">
<svg version="1.0" xmlns="http://www.w3.org/2000/svg"
 width="572.000000pt" height="551.000000pt" viewBox="0 0 572.000000 551.000000"
 preserveAspectRatio="xMidYMid meet">
<metadata>
Created by potrace 1.15, written by Peter Selinger 2001-2017
</metadata>
<g transform="translate(0.000000,551.000000) scale(0.100000,-0.100000)"
fill="#000000" stroke="none">
<path d="M1630 5503 c1 -5 45 -179 99 -388 l97 -380 97 -3 c53 -1 97 0 97 4 0
3 27 113 59 243 33 130 63 250 66 266 6 25 11 14 31 -75 13 -58 44 -179 68
-270 l43 -165 96 -3 c54 -1 97 0 97 3 0 3 43 174 95 379 52 205 95 378 95 384
0 8 -26 12 -83 12 l-84 0 -61 -272 c-34 -150 -63 -282 -66 -293 -3 -16 -4 -14
-5 5 0 14 -31 145 -68 293 l-67 267 -82 0 c-70 0 -83 -3 -88 -17 -16 -54 -115
-444 -121 -478 -12 -65 -21 -71 -28 -20 -6 40 -98 445 -113 498 -5 14 -18 17
-90 17 -46 0 -84 -3 -84 -7z"/>
<path d="M2750 5120 l0 -390 85 0 85 0 0 150 0 149 128 3 127 3 3 78 3 77
-131 0 -130 0 0 85 0 85 140 0 140 0 0 75 0 75 -225 0 -225 0 0 -390z"/>
<path d="M3310 5121 l0 -391 85 0 85 0 0 135 0 135 38 0 c63 0 162 20 202 40
79 40 122 117 124 220 2 114 -31 177 -118 223 -37 20 -58 22 -228 25 l-188 4
0 -391z m313 227 c34 -18 46 -40 46 -83 1 -70 -44 -105 -133 -105 l-56 0 0
100 0 100 61 0 c33 0 70 -5 82 -12z"/>
<path d="M1280 4643 c-153 -25 -308 -133 -413 -287 -65 -97 -151 -295 -134
-312 17 -18 263 202 382 341 104 122 170 188 218 220 53 34 29 52 -53 38z"/>
<path d="M4150 4637 c0 -8 12 -23 27 -32 48 -32 113 -97 218 -220 57 -66 132
-145 167 -175 109 -96 208 -173 215 -166 17 17 -68 215 -136 314 -111 163
-267 266 -438 288 -44 5 -53 4 -53 -9z"/>
<path d="M728 4461 c-117 -104 -193 -246 -233 -436 -16 -80 -40 -510 -28 -528
3 -5 31 16 62 46 31 30 126 108 211 174 185 143 285 246 335 345 33 67 44 104
28 96 -33 -14 -435 -288 -468 -319 l-42 -39 34 163 c51 248 80 353 123 444 21
45 35 85 31 88 -5 2 -29 -13 -53 -34z"/>
<path d="M4730 4487 c0 -8 16 -48 35 -88 38 -81 67 -188 119 -437 l34 -162
-44 39 c-34 33 -435 306 -468 320 -16 7 5 -53 41 -117 51 -92 147 -189 323
-325 85 -66 180 -144 211 -174 31 -30 59 -51 63 -45 8 14 -11 438 -24 507 -23
122 -62 228 -115 311 -61 94 -175 206 -175 171z"/>
<path d="M3881 4383 c-21 -32 -54 -70 -71 -86 -30 -26 -32 -31 -28 -78 l5 -51
-20 32 c-20 31 -20 73 -1 165 12 56 -13 13 -46 -80 -38 -106 -43 -161 -15
-181 11 -8 26 -13 35 -12 8 2 23 -5 32 -14 36 -36 50 -26 154 106 77 98 74
117 -7 41 -27 -25 -58 -45 -70 -45 -21 0 -21 1 -6 18 9 10 21 41 27 70 5 28
23 76 40 106 42 74 21 81 -29 9z"/>
<path d="M3164 4303 c-15 -21 -45 -57 -66 -80 -21 -24 -38 -51 -38 -61 0 -10
-11 -33 -25 -52 -15 -20 -25 -47 -25 -67 0 -18 -4 -33 -9 -33 -11 0 -41 -73
-41 -100 0 -11 -9 -34 -20 -52 -11 -18 -20 -49 -20 -69 0 -19 -5 -40 -10 -45
-21 -21 -52 -195 -70 -389 -6 -60 -14 -130 -19 -155 -5 -25 -5 -94 0 -155 4
-60 8 -170 8 -243 l1 -133 108 3 107 3 6 115 c12 202 43 359 90 452 42 82 10
93 -41 16 -19 -29 -47 -87 -62 -128 -32 -89 -36 -74 -8 36 29 116 71 194 135
252 53 48 74 92 39 78 -9 -3 -26 -6 -39 -6 -32 0 -153 -103 -161 -138 -7 -28
-44 -82 -44 -64 0 25 45 153 75 212 38 75 84 136 196 258 43 47 79 92 79 99 0
22 -25 14 -55 -17 -16 -16 -34 -30 -41 -30 -20 0 -132 -99 -140 -123 -4 -11
-17 -29 -30 -39 -12 -10 -26 -29 -30 -41 -8 -24 -44 -75 -44 -61 0 5 9 54 19
109 51 266 129 490 213 613 49 71 14 103 -38 35z"/>
<path d="M3648 4275 c-4 -11 -9 -45 -13 -75 -3 -30 -13 -79 -21 -107 -13 -46
-13 -57 0 -88 9 -20 22 -35 33 -36 33 -2 38 -4 66 -23 19 -13 33 -16 46 -10
31 15 194 171 190 182 -2 6 -31 -7 -63 -29 -54 -36 -64 -40 -115 -37 -51 3
-58 6 -81 38 -20 29 -26 50 -30 120 -3 49 -8 77 -12 65z"/>
<path d="M1835 4208 c-38 -11 -82 -29 -96 -39 -35 -25 -59 -77 -59 -128 0 -23
-10 -61 -21 -84 -27 -53 -41 -145 -47 -317 -7 -199 -5 -251 11 -297 l14 -41
-76 65 c-133 114 -481 339 -507 329 -25 -10 -15 -27 61 -108 279 -297 477
-640 646 -1118 12 -36 24 -67 25 -69 2 -2 27 18 56 44 117 106 277 189 412
214 33 6 158 11 277 11 120 0 220 4 223 9 3 4 -6 57 -19 117 -50 218 -58 323
-49 614 13 406 11 481 -19 573 -24 73 -100 207 -118 207 -18 0 -18 -23 1 -92
24 -87 26 -206 5 -287 -26 -99 -113 -307 -121 -288 -9 26 2 78 48 212 37 108
41 130 42 220 1 105 -23 205 -48 205 -8 0 -20 -28 -30 -67 -22 -89 -49 -143
-99 -199 l-42 -46 -35 49 c-19 26 -42 67 -52 91 -20 52 -32 67 -81 103 -21 15
-52 46 -68 69 -52 72 -111 84 -234 48z m161 -836 c6 -4 16 -17 23 -29 32 -62
-78 -124 -129 -73 -44 44 -10 110 58 110 20 0 42 -4 48 -8z m226 -49 c39 -35
14 -94 -48 -112 -58 -16 -104 27 -90 84 11 43 101 62 138 28z m-189 -165 c22
-27 22 -53 -3 -78 -44 -44 -115 -33 -134 23 -8 21 -6 31 10 48 39 43 93 47
127 7z m219 -35 c43 -39 13 -95 -59 -109 -61 -12 -102 75 -51 110 29 21 87 20
110 -1z m46 -186 c16 -12 16 -68 -1 -91 -8 -11 -31 -20 -59 -23 -39 -5 -47 -2
-62 18 -32 46 -12 91 50 108 30 8 50 5 72 -12z"/>
<path d="M3568 4190 c-8 -20 -31 -213 -32 -267 -1 -43 24 -83 51 -83 7 0 22
-9 33 -20 37 -37 72 -26 155 51 28 25 68 61 89 81 54 48 43 69 -14 25 -25 -19
-56 -40 -70 -47 -31 -17 -140 -20 -140 -4 0 6 -12 29 -27 50 -23 34 -28 52
-33 134 -3 52 -9 88 -12 80z"/>
<path d="M339 3988 c-80 -109 -131 -263 -149 -453 -16 -181 0 -306 76 -554 24
-79 44 -146 44 -148 0 -1 4 -3 9 -3 5 0 11 10 15 23 10 40 80 138 176 247 157
178 233 300 278 440 39 126 37 132 -23 69 -22 -23 -99 -92 -172 -155 -115 -99
-210 -205 -224 -251 -6 -18 -14 314 -13 512 0 122 5 189 17 238 20 80 20 77 7
77 -5 0 -24 -19 -41 -42z"/>
<path d="M5120 4026 c0 -3 8 -35 17 -73 18 -74 22 -275 13 -583 l-5 -166 -47
67 c-27 39 -90 104 -150 155 -57 49 -135 120 -175 158 -68 64 -73 67 -73 43 0
-32 43 -153 80 -227 40 -79 114 -180 220 -300 96 -109 166 -207 176 -247 4
-13 10 -23 14 -23 8 0 56 146 94 289 83 308 36 667 -113 869 -26 35 -51 54
-51 38z"/>
<path d="M3509 3723 c-149 -256 -256 -484 -322 -689 -46 -143 -91 -344 -79
-356 5 -5 49 -8 97 -6 l89 3 12 60 c51 244 225 570 411 765 144 152 288 230
424 230 45 0 59 3 59 14 0 22 -78 30 -159 16 -81 -13 -189 -62 -276 -124 -128
-92 -295 -285 -410 -474 -27 -44 -51 -79 -53 -77 -14 14 119 348 224 559 41
82 74 158 74 168 0 43 -32 11 -91 -89z"/>
<path d="M3895 3414 c-22 -27 -56 -68 -77 -91 -21 -24 -38 -53 -38 -66 0 -27
26 -67 43 -67 7 0 17 -10 22 -22 17 -39 57 -35 133 15 37 25 79 51 95 58 30
14 40 46 10 34 -89 -37 -119 -46 -142 -39 l-26 7 25 6 c14 4 34 22 45 41 11
19 47 60 79 92 33 32 57 60 53 64 -3 3 -39 -14 -78 -40 -40 -25 -80 -46 -89
-46 -34 0 -67 -59 -50 -91 8 -15 7 -19 -5 -19 -9 0 -16 10 -17 28 -2 49 2 65
33 114 43 66 31 82 -16 22z"/>
<path d="M3766 3353 c-16 -32 -43 -81 -62 -109 -35 -52 -42 -90 -24 -125 6
-10 20 -19 30 -19 11 0 20 -6 20 -13 0 -20 33 -47 57 -47 11 0 49 13 84 29 35
15 85 36 112 46 26 9 47 21 47 27 0 10 -10 9 -108 -11 -34 -7 -49 -5 -77 10
-19 11 -41 19 -48 19 -14 0 -37 61 -37 96 0 11 11 43 25 72 44 95 26 117 -19
25z"/>
<path d="M3646 3265 c-25 -53 -54 -107 -66 -122 -29 -37 -27 -97 5 -129 14
-14 25 -29 25 -34 0 -13 42 -40 63 -40 35 0 257 93 257 108 0 9 -6 12 -17 7
-10 -3 -44 -14 -76 -22 -56 -16 -59 -16 -103 5 -24 12 -51 22 -58 22 -9 0 -15
21 -20 65 -5 52 -3 75 15 122 23 63 35 113 26 113 -3 0 -26 -43 -51 -95z"/>
<path d="M48 3158 c-20 -63 -23 -94 -23 -223 1 -198 29 -304 136 -515 60 -118
195 -331 215 -337 7 -2 13 23 17 69 7 93 43 206 122 385 76 170 108 261 129
365 18 87 21 218 6 218 -5 0 -10 -4 -10 -9 0 -5 -51 -85 -114 -178 -62 -93
-125 -191 -139 -218 -33 -65 -67 -178 -68 -224 0 -33 -2 -32 -18 24 -10 33
-50 139 -89 236 -77 193 -110 306 -119 411 -3 37 -10 68 -14 68 -5 0 -19 -33
-31 -72z"/>
<path d="M5417 3162 c-9 -105 -42 -221 -119 -412 -39 -96 -79 -202 -89 -235
-16 -56 -18 -57 -18 -24 -1 46 -35 159 -68 224 -14 27 -77 125 -139 218 -63
93 -114 173 -114 178 0 5 -4 9 -10 9 -15 0 -12 -117 5 -207 20 -104 59 -217
133 -383 76 -172 112 -286 119 -378 4 -46 10 -71 17 -69 23 7 150 209 221 352
107 214 130 303 129 505 -1 122 -5 169 -20 219 -26 87 -40 88 -47 3z"/>
<path d="M3498 2922 c-69 -88 -148 -214 -148 -237 0 -10 11 -15 35 -15 33 0
36 3 74 78 21 42 60 108 85 146 26 39 45 76 44 85 -7 33 -30 18 -90 -57z"/>
<path d="M2275 2615 c-98 -18 -210 -63 -296 -121 -111 -74 -268 -239 -247
-260 3 -3 33 8 67 25 69 35 179 74 278 97 58 14 162 17 713 20 355 3 655 7
668 10 35 7 62 60 62 123 0 47 -4 57 -34 87 l-34 34 -554 -1 c-403 -1 -572 -4
-623 -14z"/>
<path d="M600 2491 c0 -22 -12 -102 -26 -178 -14 -76 -32 -176 -40 -223 -16
-90 -20 -285 -8 -335 5 -25 -3 -18 -45 38 -29 37 -109 129 -180 205 -150 162
-197 220 -254 316 l-42 71 -3 -73 c-9 -217 155 -499 416 -715 126 -104 324
-228 339 -213 3 3 -7 43 -22 88 -29 83 -29 83 -36 443 -5 274 -11 377 -23 431
-36 156 -76 234 -76 145z"/>
<path d="M4879 2503 c-21 -54 -49 -175 -59 -256 -5 -45 -10 -204 -10 -355 0
-280 -11 -386 -46 -454 -16 -31 -18 -58 -4 -58 17 0 175 95 254 154 102 75
244 212 307 296 58 77 140 233 163 310 22 70 36 197 27 224 -7 17 -14 9 -49
-51 -55 -93 -103 -154 -237 -298 -62 -66 -142 -157 -178 -202 l-66 -82 5 52
c3 29 7 61 9 71 8 37 -15 222 -50 410 -19 104 -35 206 -35 227 0 45 -16 51
-31 12z"/>
<path d="M2105 2314 c-156 -26 -328 -102 -455 -199 -68 -53 -126 -113 -117
-121 4 -4 37 3 74 14 210 66 304 72 1124 72 528 0 715 3 734 12 35 16 55 57
55 113 0 56 -20 97 -55 113 -39 18 -1250 15 -1360 -4z"/>
<path d="M1797 2014 c-44 -8 -113 -26 -155 -40 -90 -29 -222 -102 -222 -121 0
-16 -6 -16 82 4 49 11 120 16 218 16 134 1 154 -2 265 -33 221 -61 199 -59
859 -60 l608 0 34 34 c30 30 34 40 34 85 0 57 -20 105 -49 121 -13 7 -285 10
-808 9 -633 -1 -803 -4 -866 -15z"/>
<path d="M824 1828 c3 -13 20 -117 37 -233 40 -271 53 -323 127 -495 3 -9 -8
-5 -29 11 -55 41 -204 130 -349 209 -187 101 -276 160 -340 224 -30 31 -58 56
-62 56 -4 0 -5 -15 -1 -32 46 -238 432 -554 789 -648 100 -26 244 -44 256 -32
6 6 -2 31 -21 64 -18 32 -55 140 -91 266 -64 225 -112 348 -179 461 -74 126
-155 212 -137 149z"/>
<path d="M4634 1804 c-106 -130 -183 -297 -254 -554 -59 -209 -73 -251 -106
-307 -14 -24 -22 -48 -19 -54 14 -22 257 21 372 67 337 133 636 403 676 612 4
17 3 32 -1 32 -4 0 -30 -23 -57 -51 -66 -68 -154 -126 -366 -242 -98 -54 -218
-124 -268 -157 -50 -33 -91 -58 -91 -56 0 2 13 32 29 67 41 93 67 200 96 404
15 99 30 198 35 220 19 81 9 85 -46 19z"/>
<path d="M1675 1834 c-16 -2 -63 -9 -102 -15 -81 -13 -98 -34 -35 -44 177 -28
282 -68 460 -174 205 -122 159 -116 865 -116 l599 0 29 33 c25 28 29 40 29 92
0 52 -4 64 -29 92 l-29 33 -649 5 -648 6 -125 37 c-69 20 -163 42 -210 47 -85
10 -98 10 -155 4z"/>
<path d="M2238 1425 c8 -29 158 -176 227 -222 33 -22 84 -52 113 -67 28 -14
52 -28 52 -31 0 -12 33 -158 45 -202 18 -62 22 -63 119 -33 79 25 79 25 40
170 l-26 97 35 69 c37 74 93 222 86 229 -3 2 -160 5 -350 7 -340 3 -346 3
-341 -17z"/>
<path d="M3021 1403 c12 -56 54 -174 85 -243 20 -44 32 -60 47 -60 21 0 21 4
1 140 -3 23 5 10 24 -40 16 -41 46 -108 66 -149 62 -123 63 -80 5 168 l-53
221 -92 0 -92 0 9 -37z"/>
<path d="M3234 1413 c27 -108 212 -480 244 -491 24 -8 11 51 -34 150 -26 57
-68 162 -95 233 l-47 130 -37 3 c-37 3 -37 3 -31 -25z"/>
<path d="M3351 1418 c0 -13 19 -72 43 -133 30 -76 49 -111 61 -114 16 -3 17 2
12 40 -3 24 -16 86 -27 137 l-22 92 -34 0 c-29 0 -34 -3 -33 -22z"/>
<path d="M1240 1275 c0 -22 114 -248 165 -325 47 -73 128 -159 186 -197 22
-14 39 -27 39 -28 0 -1 -24 2 -52 7 -29 4 -154 13 -278 18 -285 12 -412 36
-592 114 -49 21 -57 6 -22 -40 74 -97 249 -197 418 -239 188 -47 426 -55 586
-19 107 24 351 107 347 117 -2 6 -25 18 -53 27 -134 46 -234 121 -412 309
-130 137 -220 214 -294 252 -32 17 -38 17 -38 4z"/>
<path d="M4221 1265 c-77 -44 -167 -123 -283 -247 -168 -180 -277 -262 -412
-308 -28 -9 -51 -21 -53 -27 -4 -10 240 -93 347 -117 100 -22 243 -29 371 -17
255 24 461 105 589 231 38 38 70 76 70 85 0 19 -2 19 -48 -1 -180 -78 -307
-102 -592 -114 -124 -5 -249 -14 -277 -18 -29 -5 -53 -8 -53 -7 0 1 18 14 39
28 59 39 139 124 186 196 56 87 167 309 163 327 -2 10 -13 8 -47 -11z"/>
<path d="M2261 625 c-116 -22 -213 -50 -444 -130 -299 -103 -429 -116 -618
-64 -39 11 -74 17 -78 13 -19 -19 161 -124 279 -162 242 -78 453 -48 710 100
136 79 227 123 289 142 56 16 154 21 209 10 29 -6 26 -9 -62 -53 -115 -59
-272 -165 -396 -269 -139 -116 -134 -105 -70 -163 30 -27 63 -49 73 -49 11 0
71 55 145 131 191 198 389 349 458 349 22 0 64 -22 140 -72 86 -56 145 -107
277 -240 93 -92 176 -168 185 -168 10 0 42 22 72 49 l55 49 -20 22 c-35 40
-231 196 -319 254 -46 31 -128 79 -181 106 l-96 49 47 7 c125 18 235 -12 418
-116 56 -31 133 -74 173 -93 236 -119 503 -113 751 18 75 39 141 89 131 99 -4
4 -39 -2 -78 -13 -97 -27 -219 -35 -316 -22 -50 7 -180 45 -345 100 -338 114
-393 126 -585 126 -137 -1 -157 -3 -228 -28 l-79 -27 -81 26 c-102 33 -297 42
-416 19z"/>
</g>
</svg>
