<?xml version="1.0" encoding="UTF-8" standalone="no"?>
<svg
   xmlns:dc="http://purl.org/dc/elements/1.1/"
   xmlns:cc="http://creativecommons.org/ns#"
   xmlns:rdf="http://www.w3.org/1999/02/22-rdf-syntax-ns#"
   xmlns:svg="http://www.w3.org/2000/svg"
   xmlns="http://www.w3.org/2000/svg"
   viewBox="0 0 175.58711 75.589601"
   height="75.5896"
   width="175.58711"
   xml:space="preserve"
   id="svg2"
   version="1.1"><metadata
     id="metadata8"><rdf:RDF><cc:Work
         rdf:about=""><dc:format>image/svg+xml</dc:format><dc:type
           rdf:resource="http://purl.org/dc/dcmitype/StillImage" /></cc:Work></rdf:RDF></metadata><defs
     id="defs6" /><g
     transform="matrix(1.3333333,0,0,-1.3333333,-18.895557,90.708398)"
     id="g10"><g
       transform="scale(0.1)"
       id="g12"><path
         id="path14"
         style="fill:#231f20;fill-opacity:1;fill-rule:nonzero;stroke:none"
         d="m 499.336,643.359 h 5.48 c 5.118,0 8.95,1.012 11.493,3.039 2.539,2.02 3.816,4.969 3.816,8.832 0,3.903 -1.07,6.782 -3.199,8.649 -2.133,1.859 -5.469,2.797 -10.016,2.797 h -7.574 z m 37.598,12.461 c 0,-8.445 -2.641,-14.91 -7.922,-19.382 -5.285,-4.485 -12.789,-6.719 -22.532,-6.719 h -7.144 v -27.93 h -16.648 v 78.524 h 25.078 c 9.527,0 16.765,-2.047 21.726,-6.153 4.961,-4.101 7.442,-10.211 7.442,-18.34 z m -95.36,-54.031 h -16.383 v 78.524 h 45.012 v -13.637 h -28.629 v -20.258 h 26.641 v -13.586 h -26.641 z m -45.254,0 h -18.961 l -10.629,41.254 c -0.402,1.465 -1.07,4.496 -2.015,9.102 -0.953,4.605 -1.5,7.691 -1.641,9.261 -0.215,-1.937 -0.754,-5.043 -1.609,-9.32 -0.863,-4.273 -1.527,-7.332 -1.985,-9.156 l -10.585,-41.141 h -18.903 l -20.039,78.524 h 16.387 l 10.043,-42.856 c 1.754,-7.914 3.019,-14.777 3.808,-20.578 0.215,2.043 0.707,5.203 1.481,9.48 0.766,4.286 1.496,7.606 2.176,9.965 l 11.437,43.989 h 15.738 l 11.438,-43.989 c 0.504,-1.969 1.129,-4.98 1.887,-9.019 0.746,-4.051 1.324,-7.524 1.715,-10.426 0.355,2.801 0.929,6.281 1.718,10.453 0.789,4.164 1.504,7.543 2.153,10.125 l 9.984,42.856 h 16.383 z M 355.594,328.664 c -30.508,0 -50.094,-7.246 -55.442,-9.492 -0.316,-0.137 -0.57,0.312 -0.328,0.555 33.528,34.855 72.781,32.929 82.223,32.929 9.555,0 111.617,0 111.617,0 5.625,0 10.184,-5.371 10.184,-12 0,-6.621 -4.559,-11.992 -10.184,-11.992 0,0 -112.008,0 -138.07,0 z m 25.144,-30.851 c -32.875,0 -42.457,18.683 -92.215,6.347 -0.343,-0.086 -0.574,0.383 -0.285,0.578 27.739,19.032 57.91,17.305 70.114,17.305 9.55,0 135.312,0 135.312,0 5.625,0 10.184,-5.371 10.184,-11.992 0,-6.621 -4.559,-11.992 -10.184,-11.992 0,0 -86.894,-0.246 -112.926,-0.246 z m 2.336,-30.372 c -33.746,0 -36.445,24.903 -86.465,30.508 -0.351,0.039 -0.39,0.559 -0.05,0.645 41.093,10.273 56.382,-7.156 80.371,-7.156 9.554,0 116.734,0 116.734,0 5.625,0 10.184,-5.372 10.184,-11.993 0,-6.632 -4.559,-12.004 -10.184,-12.004 0,0 -84.531,0 -110.59,0 z m -7.324,91.829 c -27.164,0 -49.684,-11.848 -54.953,-14.836 -0.293,-0.164 -0.59,0.187 -0.399,0.461 4.407,6.484 28.204,38.367 69.106,38.367 9.551,0 104.16,0 104.16,0 5.625,0 10.184,-5.371 10.184,-12 0,-6.621 -4.559,-11.992 -10.184,-11.992 0,0 -91.851,0 -117.914,0 z m 149.406,66.25 c -1.047,1.062 -2.621,1.835 -4.433,2.05 -1.34,0.184 -2.547,-0.031 -3.621,-0.429 0.472,0.984 0.863,2.043 1.019,3.293 0.266,1.941 -0.101,3.75 -0.836,5.129 -3.359,7.363 6.246,22.085 5.035,22.75 -1.152,0.632 -6.609,-15.602 -11.914,-22.165 -1.019,-1.195 -1.758,-2.921 -1.992,-4.886 -0.184,-1.942 0.133,-3.778 0.863,-5.129 0.739,-1.328 1.868,-2.258 3.18,-2.336 0.367,-0.055 0.734,-0.031 1.074,0.051 -0.078,-0.184 -0.156,-0.399 -0.183,-0.586 -0.211,-1.434 0.34,-2.789 1.418,-3.883 1.05,-1.113 2.597,-1.856 4.41,-2.07 1.859,-0.239 3.594,0.132 4.933,0.929 7.192,3.934 22.098,7.813 21.782,9.196 -0.289,1.379 -14.828,-7.149 -20.735,-1.914 z m 10.996,10.734 c -0.996,1.09 -2.41,1.832 -4.066,1.996 -0.945,0.051 -1.813,-0.109 -2.676,-0.426 0.133,0.453 0.313,0.848 0.367,1.305 0.184,1.75 -0.234,3.371 -1.027,4.621 -3.645,6.773 5.879,19.555 4.648,20.191 -1.234,0.641 -6.457,-13.683 -11.757,-19.339 -1.047,-1.012 -1.786,-2.5 -1.965,-4.254 -0.164,-1.754 0.234,-3.403 0.996,-4.649 0.84,-1.226 1.992,-2.101 3.383,-2.285 0.605,-0.055 1.234,0.055 1.785,0.211 -0.027,-0.078 -0.106,-0.187 -0.078,-0.266 -0.129,-1.488 0.422,-2.925 1.386,-3.984 1.004,-1.062 2.442,-1.805 4.043,-1.941 1.657,-0.157 3.18,0.293 4.332,1.171 6.196,4.461 20.368,7.118 20,8.555 -0.339,1.383 -13.91,-6.113 -19.371,-0.906 z m 9.637,9.937 c -1.027,0.774 -2.418,1.196 -3.887,1.036 -0.711,-0.024 -1.363,-0.239 -1.968,-0.504 0.101,0.293 0.289,0.535 0.394,0.828 0.391,1.512 0.258,3.054 -0.238,4.301 -2.309,6.644 7.926,16.472 6.93,17.277 -0.997,0.738 -7.637,-11.164 -13.098,-15.363 -1.051,-0.774 -1.891,-1.993 -2.309,-3.536 -0.445,-1.484 -0.312,-3.05 0.211,-4.277 0.551,-1.25 1.446,-2.18 2.649,-2.551 0.918,-0.293 1.836,-0.105 2.707,0.266 -0.188,-0.504 -0.289,-1.09 -0.239,-1.699 0.129,-1.36 0.789,-2.5 1.864,-3.297 1.019,-0.793 2.414,-1.195 3.859,-1.086 1.492,0.16 2.781,0.793 3.672,1.75 4.906,4.973 17.137,9.621 16.641,10.816 -0.524,1.196 -11.52,-7.652 -17.188,-3.961 z m 18.945,21.34 c -1.023,1.512 -9.582,-7.867 -15.906,-8.769 -1.18,-0.157 -2.492,-0.742 -3.594,-1.778 -1.179,-1.066 -1.941,-2.371 -2.207,-3.613 -0.285,-1.226 -0.101,-2.422 0.555,-3.242 0.707,-0.856 1.785,-1.227 2.992,-1.09 1.207,0.133 2.465,0.715 3.649,1.805 1.101,1.035 1.863,2.336 2.152,3.562 1.914,6.43 13.121,12.141 12.359,13.125 z M 387.793,454.828 c -0.258,-0.93 -2.098,-8.156 -2.098,-8.156 -0.523,-0.293 -2.73,0.183 -3.304,0.238 -4.223,0.399 -8,4.067 -6.379,8.453 1.324,3.578 4.039,3.957 7.48,4.114 1.426,0.066 4,-0.278 5.285,-1.164 0,0 -0.507,-1.653 -0.984,-3.485 z m -4.852,-21.816 c -0.132,-0.824 -0.265,-1.645 -0.394,-2.469 -2.625,1.645 -4.172,5.422 -2.91,8.398 0.968,2.254 3.371,2.852 5.14,2.95 -0.629,-2.95 -1.261,-5.899 -1.836,-8.879 z m -3.781,-26.965 c -0.324,-1.852 -2.832,-2.102 -4.539,-2.609 -4.961,-1.485 -9.66,-0.848 -11.176,5.078 -1.656,6.347 3.149,9.007 8.289,10.254 2.809,0.664 5.407,0.109 7.325,-2.254 0.484,-0.594 1.05,-1.125 1.175,-1.688 0,0 -0.761,-7.039 -1.074,-8.781 z m -15.613,31.219 c 3.832,0.929 7.793,2.363 10.73,-1.411 3.102,-3.957 2.078,-10.308 -2.91,-11.98 -3.281,-1.117 -7.246,-2.074 -10.051,0.609 -3.671,3.508 -3.41,11.481 2.231,12.782 z m -3.75,20.566 c 4.039,0.981 8.211,2.473 11.308,-1.488 3.227,-4.145 2.153,-10.84 -3.07,-12.594 -3.465,-1.141 -7.637,-2.152 -10.578,0.664 -3.855,3.668 -3.57,12.035 2.34,13.418 z m -3.758,-44.453 c -1.047,-3.695 -4.094,-4.25 -7.293,-5.024 -2.098,2.579 -7.738,9.09 -7.836,9.864 -0.031,0.254 0,0.547 0.117,0.898 0.266,0.77 1.157,1.512 1.813,1.938 1.918,1.25 6.008,2.179 8.215,1.73 3.961,-0.851 6.035,-5.691 4.984,-9.406 z m -20.047,18.996 c -2.89,10.234 14.274,14.695 16.922,4.652 2.731,-10.312 -14.586,-14.699 -16.922,-4.652 z m -2.519,20.434 c -2.938,10.175 14.3,14.644 16.953,4.652 2.73,-10.336 -14.617,-14.723 -16.953,-4.652 z m -2.418,20.086 c -2.805,9.488 13.386,13.687 15.855,4.332 2.543,-9.618 -13.648,-13.762 -15.855,-4.332 z m -1.653,-38.661 c -0.797,-0.472 -1.093,-0.722 -1.359,-0.722 l -7.703,8.379 c 0.09,0.234 2.473,1.961 3.265,2.418 6.403,3.558 11.676,-6.618 5.797,-10.075 z m -14.617,18.868 c -3.808,8.398 10.051,17.507 14.25,8.453 3.856,-8.344 -10,-17.617 -14.25,-8.453 z m 11.653,26.597 c 4.382,-7.785 -8.821,-16.476 -12.598,-8.101 -3.36,7.226 8.375,15.648 12.598,8.101 z m -11.075,18.149 c 1.942,1.718 4.2,2.656 6.508,1.543 3.703,-1.782 3.805,-7.336 0.578,-9.543 -1.472,-1.008 -3.961,-2.254 -5.773,-1.805 -3.965,1.012 -4.723,6.793 -1.313,9.805 z m 0.496,16.687 c 1.602,1.082 3.731,2.055 5.567,1.301 3.34,-1.363 3.23,-6.215 0.523,-8.156 -1.234,-0.879 -3.461,-1.965 -4.961,-1.567 -3.383,0.852 -4.215,6.332 -1.129,8.422 z m 8.875,23.781 c 1.985,1.075 4.852,1.52 6.641,-0.476 2.094,-2.352 1.414,-5.926 -1.344,-7.336 -2.125,-1.066 -4.984,-1.461 -6.664,0.508 -1.836,2.125 -1.461,5.777 1.367,7.304 z m -1.578,-18.066 c -1.601,5.953 8.426,8.766 10.055,2.711 1.809,-5.875 -8.453,-8.801 -10.055,-2.711 z m 16.168,-10.391 c 2.336,-6.429 -8.554,-10.074 -10.679,-3.722 -2.18,6.433 8.765,10.097 10.679,3.722 z m 1.367,31.329 c 2.075,0.835 4.739,1.73 7.055,0 2.891,-2.161 2.262,-7.016 -1.051,-8.532 -2.175,-0.98 -4.957,-1.644 -6.898,0.078 -2.465,2.207 -2.602,7.051 0.894,8.454 z m -1.921,-53.809 c -2.938,-0.688 -6.008,-1.859 -8.446,0.664 -3.125,3.219 -2.23,8.848 1.992,10.391 2.731,1.035 6.192,1.621 8.422,-0.664 2.864,-2.926 2.551,-9.301 -1.968,-10.391 z m 0.054,32.84 c -1.89,6.379 8.5,9.648 10.5,3.457 2.043,-6.352 -8.711,-9.727 -10.5,-3.457 z m 17.399,-11.688 c 2.441,-7.281 -9.864,-11.164 -12.125,-3.988 -2.282,7.332 10.109,11.215 12.125,3.988 z m 0.66,19.5 c 2.168,0.582 4.461,0.371 6.113,-1.402 2.52,-2.711 1.652,-7.336 -2.07,-8.031 -1.762,-0.317 -4.465,-0.184 -5.832,1.011 -2.465,2.18 -2.348,7.313 1.789,8.422 z m 10.496,-15.277 c 3.961,0 5.957,-5.82 3.648,-8.715 -1.39,-1.754 -4.386,-1.859 -6.429,-1.543 -3.782,0.586 -6.192,5.449 -3.649,8.746 1.547,1.992 4.199,1.512 6.43,1.512 z m -19.027,-23.969 c -2.442,8.375 11.781,12.117 13.961,3.805 2.207,-8.453 -12.098,-12.172 -13.961,-3.805 z m 8.714,-10.707 c 3.883,0.399 7.926,1.301 10.313,-2.765 2.492,-4.301 0.629,-10.282 -4.41,-11.29 -3.305,-0.691 -7.324,-1.011 -9.68,1.915 -3.101,3.878 -1.867,11.613 3.777,12.14 z m 19.747,18.645 c 4.796,-1.981 6.417,-7.645 3.031,-10.805 -1.809,-1.648 -5.117,-1.328 -7.348,-0.879 -4.461,0.879 -7.379,7.586 -3.465,10.762 2.004,1.633 5.598,1.828 7.782,0.922 z m 7.542,-20.184 c 3.02,-3.695 1.891,-10.23 -3.382,-10.551 -2.754,-0.156 -6.352,0.16 -8.211,2.422 -2.996,3.613 -1.867,10.387 3.406,10.57 2.758,0.11 6.328,-0.183 8.187,-2.441 z m 20.391,66.641 c -0.285,0.425 -0.808,0.664 -1.336,0.504 -0.629,-0.211 -1.051,-0.907 -0.812,-1.516 12.047,-32.363 -3.332,-48.305 -9.766,-70.973 -7.715,18.414 17.848,35.739 4.676,69.297 -0.188,0.426 -0.524,0.774 -0.996,0.852 -0.66,0.082 -1.289,-0.188 -1.395,-1.059 -0.34,-2.367 -1.887,-20.969 -16.98,-31.863 -1.547,3.562 -3.828,7.281 -7.032,10.207 -1.39,6.269 -5.484,14.879 -14.093,17.426 -1.289,3.242 -3.887,7.894 -8.871,10.39 -4.696,2.34 -10.133,2.129 -16.168,-0.609 -7.293,-0.852 -12.309,-3.691 -14.953,-8.449 -2.497,-4.492 -2.051,-9.379 -1.211,-12.703 -6.141,-6.563 -6.434,-16.286 -6.27,-20.09 -3.648,-8.762 -1.601,-18.996 -0.449,-23.246 -4.356,-11.903 -0.106,-23.461 1.601,-27.289 0,-1.036 0.051,-2.024 0.106,-3.004 -14.277,15.625 -46.766,34.972 -59.18,42.355 -0.582,0.344 -1.312,0.266 -1.812,-0.211 -0.629,-0.586 -0.657,-1.543 -0.078,-2.179 27.687,-26.997 52.382,-60.317 76.105,-129.457 11.84,12.304 33.227,28.488 63.672,28.488 h 35.609 c -22.621,84.281 10.317,114.441 -20.367,153.129 z m 168.359,-43.578 c -6.507,1.703 -48.078,9.062 -94.66,-76.633 6.797,31.914 27.45,70.523 33.118,81.734 v 0.078 c 0.343,0.641 0.156,1.465 -0.418,1.914 -0.579,0.426 -1.446,0.293 -1.891,-0.343 -30.785,-51.336 -41.598,-80.911 -47.973,-116.301 h 19.285 c 3.282,34.117 46.375,114.492 92.301,108.515 h 0.055 c 0.262,-0.054 0.496,0.161 0.527,0.399 0.102,0.293 -0.082,0.582 -0.344,0.637 z M 480.488,217.277 470.07,260.832 h -17.738 c 2.805,-11.055 6.82,-22.297 12.02,-32.148 0.336,-0.586 0.968,-0.938 1.597,-0.832 0.84,0.109 1.5,0.988 1.34,1.894 -1.207,9.219 -2.648,18.117 -4.016,26.992 3.754,-13.945 8.817,-27.578 15.645,-40.125 0.18,-0.39 0.574,-0.578 0.941,-0.449 0.5,0.106 0.762,0.633 0.629,1.113 z m 17.926,19.774 c -1.812,7.277 -3.699,16.211 -5.328,23.781 h -6.742 c 2.621,-8.078 6.168,-17.09 9.316,-24.797 0.313,-0.742 1.02,-1.113 1.703,-0.926 0.817,0.243 1.262,1.114 1.051,1.942 z m 2.258,-25.613 -0.051,0.105 c -2.183,6.086 -5.199,11.535 -7.586,17.375 -2.547,5.848 -5.012,11.59 -7.062,17.586 -1.703,4.492 -3.516,9.648 -4.907,14.328 h -6.507 c 1.839,-5.449 4.226,-11.32 6.457,-16.582 4.91,-11.875 10.578,-23.516 17.793,-33.926 0.261,-0.383 0.761,-0.539 1.234,-0.351 0.578,0.215 0.836,0.879 0.629,1.465 z m 9.734,209.007 c -0.496,0.743 -1.703,0.903 -2.281,0.293 -11.832,-12.488 -19.004,-25.777 -21.469,-30.687 h 7.035 c 3.516,8.262 11.442,22.851 16.536,28.109 l 0.054,0.055 c 0.52,0.586 0.625,1.566 0.125,2.23 z m -53.535,60.45 c 6.508,10.683 16.168,18.867 24.356,28.75 0.289,0.375 0.257,0.957 -0.082,1.277 -0.313,0.344 -0.84,0.344 -1.176,0.027 -1.867,-1.992 -3.809,-3.855 -5.805,-5.715 -0.867,0.426 -3.07,-0.425 -5.301,-2.175 -1.758,-1.383 -3.015,-2.926 -3.461,-4.039 -1.132,0.261 -3.257,-1.067 -5.172,-3.512 -1.578,-2.043 -2.496,-4.199 -2.468,-5.528 -1.207,-0.101 -2.965,-1.644 -4.461,-4.089 -0.969,-1.621 -1.602,-3.192 -1.809,-4.489 -0.972,-0.664 -2.074,-1.914 -3.097,-3.535 -1.336,-2.23 -2.02,-4.492 -1.813,-5.793 -0.316,-0.558 -0.629,-1.094 -0.891,-1.648 0.051,0.453 0.106,0.879 0.157,1.328 1.918,15.121 4.695,30.105 8.925,44.559 4.247,14.406 9.34,28.937 18.079,40.601 l 0.054,0.055 c 0.446,0.64 0.391,1.511 -0.16,2.097 -0.547,0.614 -1.465,0.641 -2.047,0.032 -3.015,-3.219 -5.562,-6.805 -7.847,-10.5 -0.997,0.535 -3.094,-1.434 -4.696,-4.516 -1.468,-2.785 -1.992,-5.367 -1.441,-6.352 0,0 -0.027,-0.078 -0.082,-0.054 -1.051,0.453 -2.988,-1.883 -4.172,-5.02 -1.156,-2.949 -1.367,-5.656 -0.574,-6.562 -0.055,-0.051 -0.055,-0.082 -0.082,-0.129 -1.18,0.422 -3.098,-2.262 -4.278,-6.063 -0.972,-3.218 -1.074,-6.004 -0.367,-7.125 0.055,-0.047 0,-0.183 -0.055,-0.152 -1.207,0.422 -3.042,-2.34 -4.117,-6.117 -1.078,-3.637 -1,-6.856 0.028,-7.488 -1.184,0.132 -2.84,-2.633 -3.703,-6.379 -0.786,-3.243 -0.708,-6.036 0.054,-7.149 -1.156,-0.344 -2.441,-3.054 -3.097,-6.562 -0.629,-3.426 -0.317,-6.274 0.523,-7.176 -1.074,-0.559 -2.176,-3.344 -2.574,-6.801 -0.391,-3.43 0.109,-6.246 1.004,-7.148 -0.895,-1.008 -1.758,-3.399 -2.129,-6.27 -0.367,-2.734 -0.133,-5.105 0.394,-6.433 -0.972,-0.825 -1.711,-3.586 -1.734,-6.907 -0.078,-2.656 0.316,-4.914 0.996,-6.218 -0.523,-1.329 -0.887,-3.27 -0.887,-5.418 -0.054,-2.793 0.391,-5.18 1.098,-6.43 -0.211,-9.805 -0.078,-20.25 0.449,-30.078 h 21.176 c 0.156,7.648 0.66,15.996 1.418,23.566 1.496,13.496 3.73,27.207 10.473,38.742 l 0.054,0.079 c 0.207,0.425 0.18,0.902 -0.133,1.273 -0.394,0.348 -0.949,0.348 -1.312,-0.078 -9.16,-10.629 -13.176,-25.059 -15.539,-38.903 -0.418,-2.707 -0.762,-5.441 -1.074,-8.156 0.578,11.106 1.601,22.16 4.144,32.684 2.918,12.808 8.742,25.004 19.84,31.832 0.344,0.215 0.527,0.664 0.395,1.117 -0.129,0.504 -0.653,0.797 -1.102,0.664 -0.711,-0.215 -1.363,-0.586 -2.047,-0.879 -0.73,0.903 -3.437,0.238 -6.219,-1.539 -2.652,-1.726 -4.41,-3.851 -4.226,-5.023 0,-0.051 -0.129,-0.133 -0.129,-0.024 -0.027,0.133 -0.055,0.266 -0.133,0.344 -0.996,0.824 -3.672,-1.035 -5.933,-4.195 -2.282,-3.164 -3.172,-6.461 -2.204,-7.313 0.055,-0.023 0.028,-0.105 -0.023,-0.105 -1.18,0.476 -3.148,-2.203 -4.383,-5.953 -0.894,-2.625 -1.105,-5.047 -0.785,-6.43 0,-0.051 -0.055,-0.102 -0.055,-0.102 -0.918,-3.035 -1.679,-6.089 -2.39,-9.195 0.265,4.383 0.656,8.793 1.285,13.148 1.867,12.543 5.644,24.821 12.363,35.29 z m 66.633,34.968 c -1.34,0.637 -3.098,0.797 -4.856,0.371 -1.312,-0.316 -2.363,-0.957 -3.257,-1.699 0.132,1.113 0.132,2.235 -0.18,3.453 -0.418,1.914 -1.367,3.481 -2.52,4.492 -5.722,5.715 -1.785,22.907 -3.125,23.118 -1.308,0.183 -0.839,-16.953 -3.539,-24.977 -0.55,-1.488 -0.66,-3.375 -0.187,-5.289 0.476,-1.891 1.418,-3.48 2.598,-4.516 1.128,-0.988 2.496,-1.437 3.781,-1.035 0.34,0.047 0.683,0.211 0.972,0.426 0,-0.215 0,-0.426 0.024,-0.641 0.293,-1.406 1.289,-2.5 2.652,-3.136 1.391,-0.664 3.094,-0.825 4.883,-0.371 1.809,0.425 3.305,1.406 4.277,2.605 5.379,6.242 18.032,15.145 17.27,16.34 -0.762,1.168 -11.445,-11.957 -18.793,-9.141 z m 24.461,21.657 c -0.817,1.168 -10.945,-10.653 -17.848,-7.704 -1.312,0.664 -2.914,0.848 -4.515,0.422 -0.887,-0.265 -1.649,-0.746 -2.36,-1.328 -0.027,0.481 0,0.906 -0.105,1.328 -0.422,1.727 -1.364,3.082 -2.543,3.985 -5.778,5.05 -1.239,20.406 -2.598,20.57 -1.394,0.16 -1.367,-15.121 -4.363,-22.297 -0.629,-1.328 -0.809,-2.973 -0.363,-4.672 0.418,-1.707 1.367,-3.109 2.546,-4.015 1.176,-0.848 2.571,-1.25 3.938,-0.93 0.598,0.16 1.125,0.476 1.601,0.824 0,-0.078 -0.031,-0.187 0,-0.265 0.418,-1.465 1.415,-2.606 2.7,-3.27 1.312,-0.613 2.914,-0.82 4.461,-0.371 1.601,0.422 2.863,1.406 3.648,2.601 4.277,6.407 16.613,13.899 15.801,15.122 z m 2.492,14.8 c -0.894,0.93 -8.16,-11.238 -14.746,-9.781 -1.238,0.348 -2.684,0.27 -3.992,-0.394 -0.656,-0.27 -1.211,-0.719 -1.676,-1.172 0,0.293 0.074,0.586 0.074,0.902 -0.156,1.543 -0.785,2.98 -1.707,3.938 -4.433,5.417 1.735,18.25 0.551,18.652 -1.207,0.344 -3.305,-13.156 -6.977,-19.031 -0.738,-1.114 -1.105,-2.547 -0.949,-4.114 0.11,-1.566 0.762,-2.98 1.68,-3.961 0.949,-0.98 2.101,-1.515 3.359,-1.437 0.949,0.031 1.758,0.535 2.442,1.199 0,-0.531 0.105,-1.113 0.367,-1.676 0.578,-1.222 1.601,-2.07 2.863,-2.418 1.234,-0.398 2.703,-0.293 4.012,0.348 1.34,0.664 2.308,1.727 2.836,2.922 2.886,6.402 12.73,15.09 11.863,16.023 z m -4.355,16.899 c -1.497,1.066 -6.247,-10.762 -11.891,-13.84 -1.051,-0.563 -2.047,-1.57 -2.754,-2.953 -0.707,-1.41 -0.973,-2.895 -0.785,-4.145 0.129,-1.25 0.707,-2.312 1.625,-2.847 0.941,-0.555 2.074,-0.528 3.148,0.031 1.106,0.555 2.071,1.566 2.809,2.973 0.684,1.382 0.941,2.871 0.785,4.121 -0.418,6.695 8.109,15.996 7.063,16.66 z M 442.516,260.832 h -59.442 c -4.043,0 -7.691,0.32 -11.051,0.926 0.024,0 0.024,-0.02 0.024,-0.02 9.766,-14.511 25.062,-25.515 40.578,-32.898 2.387,-13.235 5.379,-25.481 6.453,-26.438 1.106,-0.957 16.324,3.43 16.797,4.836 0.445,1.407 -6.219,24.071 -6.219,24.071 8,13.742 10.473,21.847 12.86,29.523 z M 592.051,159.141 c -15.008,-5.926 -34.59,-6.426 -50.571,-2.176 -36.609,11.394 -77.261,32.996 -116.289,15.066 -39.023,17.93 -79.671,-3.672 -116.285,-15.066 -15.98,-4.25 -35.558,-3.75 -50.57,2.176 -0.422,0.156 -0.738,-0.371 -0.371,-0.664 21.601,-16.707 51.859,-24.395 79.101,-14.559 26.164,8.152 48.293,35.867 79.282,24.043 -24.535,-9.59 -47.473,-27.285 -65.188,-43.996 l 12.883,-10.574 c 16.09,18.73 34.199,37.461 54.695,48.855 2.805,1.652 4.485,2.317 6.453,2.422 1.973,-0.105 3.649,-0.77 6.43,-2.422 20.524,-11.394 38.633,-30.125 54.723,-48.855 l 12.886,10.574 c -17.714,16.711 -40.656,34.406 -65.191,43.996 30.992,11.824 53.117,-15.891 79.281,-24.043 27.243,-9.836 57.5,-2.148 79.098,14.559 0.344,0.293 0.055,0.82 -0.367,0.664 z m -241.289,25.246 c -38.262,9.277 -48.731,45.144 -80.719,60.711 -0.344,0.187 -0.711,-0.215 -0.5,-0.528 10.078,-16.582 15.535,-41.98 44.586,-57.636 0.238,-0.125 0.105,-0.508 -0.156,-0.418 -41.676,8.015 -59.184,-3.137 -102.852,16.601 -0.367,0.164 -0.762,-0.234 -0.523,-0.586 14.355,-20.832 48.418,-35.07 95.082,-31.144 16.797,1.437 28.968,8.508 45.082,12.277 0.398,0.106 0.398,0.645 0,0.723 z m -80.145,22 c -14.543,19.054 -10.394,59.726 -43.222,96.953 -0.266,0.293 -0.739,0.058 -0.661,-0.313 6.274,-27.422 4.411,-58.562 21.575,-81.386 0.16,-0.243 -0.079,-0.477 -0.313,-0.321 -33.859,26.649 -68.652,34.676 -84.141,56.25 -0.234,0.293 -0.71,0.137 -0.656,-0.234 3.832,-27.93 57.477,-71.457 107.129,-71.535 0.289,0 0.473,0.344 0.289,0.586 z m -50.836,50.644 c -15.59,28.907 3.043,73.02 -14.644,115.879 -0.184,0.449 -0.864,0.344 -0.864,-0.137 -0.527,-23.406 -15.066,-58.347 -6.273,-84.734 0.102,-0.234 -0.211,-0.371 -0.344,-0.156 -22.386,32.703 -40.148,39.539 -54.953,69.48 -0.211,0.45 -0.89,0.325 -0.918,-0.156 -0.945,-20.352 8.055,-36.934 18.211,-52.344 16.246,-20.859 37.164,-37.363 59.289,-48.359 0.34,-0.164 0.653,0.187 0.496,0.527 z M 209.207,433.09 c -0.027,0.48 -0.656,0.64 -0.894,0.215 -11.891,-22.239 -33.067,-39.934 -33.75,-69.301 -0.024,-0.293 -0.344,-0.313 -0.391,-0.047 -3.859,22.664 -23.098,48.066 -23.938,80.883 0,0.504 -0.707,0.633 -0.89,0.156 -15.828,-42.672 6.926,-83.141 31.152,-116.566 0.262,-0.344 0.785,-0.137 0.785,0.32 -0.996,35.422 29.711,61.855 27.926,104.34 z m 15.117,55.223 c -11.238,-15.602 -36.504,-26.629 -45.742,-49.133 -0.133,-0.321 -0.527,-0.239 -0.477,0.133 3.672,25.214 -6.062,54.496 3.075,88.003 0.129,0.477 -0.477,0.793 -0.766,0.422 -13.801,-16.976 -18.473,-36.879 -19.234,-58.379 -0.946,-26.41 8.343,-45.671 12.937,-63.582 0.102,-0.425 0.656,-0.394 0.762,0.028 6.613,23.488 39.809,37.625 50.207,82.129 0.129,0.48 -0.477,0.773 -0.762,0.379 z m 30.465,52.449 c -18.473,-14.481 -46.687,-28.43 -52.746,-38.504 -0.109,-0.211 -0.422,-0.051 -0.371,0.16 l 6.851,32.871 c 3.071,13.949 5.723,27.313 13.438,39.805 0.238,0.371 -0.211,0.797 -0.555,0.527 -35.164,-27.848 -30.023,-68.125 -31.57,-101.105 -0.023,-0.344 0.394,-0.5 0.629,-0.262 20.707,22.449 54.457,35.527 64.902,66.055 0.133,0.371 -0.262,0.695 -0.578,0.453 z m 26.168,50.484 c -31.074,-0.98 -53.906,-27.152 -63.695,-60.473 -0.055,-0.191 0.211,-0.347 0.367,-0.242 42.809,31.379 40.414,44.824 63.59,59.758 0.418,0.27 0.238,0.957 -0.262,0.957 z M 639.238,203.117 c -43.64,-19.738 -61.172,-8.586 -102.851,-16.601 -0.258,-0.09 -0.391,0.293 -0.157,0.418 29.055,15.656 34.512,41.054 44.59,57.636 0.211,0.313 -0.152,0.715 -0.496,0.528 -31.969,-15.567 -42.437,-51.434 -80.726,-60.711 -0.399,-0.078 -0.399,-0.617 0,-0.723 16.113,-3.769 28.289,-10.84 45.086,-12.277 46.66,-3.926 80.754,10.312 95.082,31.144 0.234,0.352 -0.161,0.75 -0.528,0.586 z m 47.266,74.453 c -15.481,-21.574 -50.281,-29.601 -84.133,-56.25 -0.211,-0.156 -0.476,0.078 -0.289,0.321 17.133,22.824 15.273,53.964 21.543,81.386 0.078,0.371 -0.395,0.606 -0.656,0.313 -32.805,-37.227 -28.684,-77.899 -43.196,-96.953 -0.187,-0.242 -0.031,-0.586 0.286,-0.586 49.656,0.078 103.273,43.605 107.105,71.535 0.051,0.371 -0.426,0.527 -0.66,0.234 z m 22.07,79.637 c -0.023,0.481 -0.707,0.606 -0.918,0.156 -14.797,-29.941 -32.566,-36.777 -54.926,-69.48 -0.16,-0.215 -0.449,-0.078 -0.367,0.156 8.789,26.387 -5.722,61.328 -6.273,84.734 0,0.481 -0.684,0.586 -0.863,0.137 -17.692,-42.859 0.941,-86.972 -14.622,-115.879 -0.183,-0.34 0.133,-0.691 0.477,-0.527 22.121,10.996 43.035,27.5 59.281,48.359 10.157,15.41 19.16,31.992 18.211,52.344 z m -7.558,87.789 c -0.18,0.477 -0.887,0.348 -0.887,-0.156 -0.84,-32.817 -20.078,-58.219 -23.938,-80.883 -0.05,-0.266 -0.363,-0.246 -0.363,0.047 -0.683,29.367 -21.89,47.062 -33.781,69.301 -0.234,0.425 -0.863,0.265 -0.863,-0.215 -1.789,-42.485 28.894,-68.918 27.894,-104.34 0,-0.457 0.551,-0.664 0.817,-0.32 24.195,33.425 46.949,73.894 31.121,116.566 z m -11.836,24.363 c -0.762,21.5 -5.43,41.403 -19.231,58.379 -0.289,0.371 -0.871,0.055 -0.761,-0.422 9.128,-33.507 -0.606,-62.789 3.093,-88.003 0.055,-0.372 -0.367,-0.454 -0.496,-0.133 -9.238,22.504 -34.512,33.531 -45.742,49.133 -0.266,0.394 -0.871,0.101 -0.762,-0.379 10.391,-44.504 43.586,-58.641 50.203,-82.129 0.102,-0.422 0.657,-0.453 0.762,-0.028 4.59,17.911 13.883,37.172 12.934,63.582 z m -60.227,106.262 c -0.344,0.27 -0.785,-0.156 -0.555,-0.527 7.715,-12.492 10.368,-25.856 13.438,-39.805 l 6.852,-32.871 c 0.054,-0.211 -0.262,-0.371 -0.368,-0.16 -6.062,10.074 -34.246,24.023 -52.746,38.504 -0.293,0.242 -0.715,-0.082 -0.582,-0.453 10.446,-30.528 44.196,-43.606 64.903,-66.055 0.234,-0.238 0.652,-0.082 0.628,0.262 -1.546,32.98 3.594,73.257 -31.57,101.105 z m -59.547,15.625 c -0.5,0 -0.66,-0.687 -0.265,-0.957 23.175,-14.934 20.789,-28.379 63.589,-59.758 0.188,-0.105 0.422,0.051 0.368,0.242 -9.785,33.321 -32.618,59.493 -63.692,60.473" /><path
         id="path16"
         style="fill:#231f20;fill-opacity:1;fill-rule:nonzero;stroke:none"
         d="m 851.66,395.527 h -22.324 l -12.523,48.575 c -0.465,1.73 -1.254,5.304 -2.372,10.722 -1.121,5.41 -1.757,9.055 -1.929,10.91 -0.254,-2.277 -0.883,-5.937 -1.895,-10.976 -1.015,-5.039 -1.793,-8.633 -2.344,-10.781 l -12.457,-48.45 h -22.265 l -23.59,92.461 h 19.293 l 11.828,-50.468 c 2.063,-9.317 3.559,-17.391 4.484,-24.219 0.254,2.402 0.836,6.125 1.747,11.164 0.902,5.039 1.757,8.945 2.558,11.726 l 13.469,51.797 h 18.531 l 13.473,-51.797 c 0.59,-2.312 1.328,-5.859 2.215,-10.625 0.886,-4.765 1.558,-8.847 2.023,-12.265 0.418,3.293 1.094,7.383 2.027,12.304 0.922,4.903 1.766,8.879 2.528,11.915 l 11.761,50.468 h 19.29 L 851.66,395.527" /><path
         id="path18"
         style="fill:#231f20;fill-opacity:1;fill-rule:nonzero;stroke:none"
         d="m 897.438,431.008 c 0,-7.004 1.148,-12.285 3.449,-15.871 2.293,-3.582 6.039,-5.379 11.222,-5.379 5.145,0 8.844,1.785 11.102,5.34 2.254,3.566 3.383,8.867 3.383,15.91 0,7 -1.137,12.246 -3.414,15.75 -2.282,3.496 -6.012,5.246 -11.196,5.246 -5.148,0 -8.851,-1.738 -11.132,-5.215 -2.278,-3.476 -3.414,-8.742 -3.414,-15.781 z m 48.886,0 c 0,-11.504 -3.031,-20.508 -9.105,-27.004 -6.071,-6.492 -14.528,-9.746 -25.364,-9.746 -6.785,0 -12.773,1.496 -17.957,4.465 -5.191,2.968 -9.175,7.246 -11.953,12.812 -2.785,5.555 -4.175,12.051 -4.175,19.473 0,11.551 3.011,20.535 9.043,26.941 6.031,6.406 14.503,9.621 25.425,9.621 6.785,0 12.774,-1.484 17.957,-4.433 5.192,-2.949 9.176,-7.188 11.961,-12.715 2.778,-5.52 4.168,-11.992 4.168,-19.414" /><path
         id="path20"
         style="fill:#231f20;fill-opacity:1;fill-rule:nonzero;stroke:none"
         d="m 1000.08,467.57 c 2.62,0 4.79,-0.195 6.52,-0.578 l -1.46,-18.086 c -1.55,0.422 -3.45,0.637 -5.691,0.637 -6.152,0 -10.953,-1.582 -14.383,-4.746 -3.437,-3.164 -5.156,-7.59 -5.156,-13.281 v -35.989 h -19.293 v 70.715 h 14.613 l 2.844,-11.894 h 0.949 c 2.196,3.965 5.153,7.156 8.887,9.578 3.731,2.422 7.789,3.644 12.17,3.644" /><path
         id="path22"
         style="fill:#231f20;fill-opacity:1;fill-rule:nonzero;stroke:none"
         d="m 1036.86,395.527 h -19.29 v 98.411 h 19.29 v -98.411" /><path
         id="path24"
         style="fill:#231f20;fill-opacity:1;fill-rule:nonzero;stroke:none"
         d="m 1085.17,409.629 c 4.93,0 8.55,1.437 10.85,4.309 2.3,2.859 3.55,7.734 3.76,14.609 v 2.078 c 0,7.598 -1.17,13.039 -3.51,16.32 -2.34,3.289 -6.15,4.93 -11.42,4.93 -4.3,0 -7.64,-1.816 -10.02,-5.469 -2.38,-3.64 -3.57,-8.945 -3.57,-15.906 0,-6.953 1.2,-12.168 3.6,-15.645 2.41,-3.488 5.84,-5.226 10.31,-5.226 z m -6.77,-15.371 c -8.31,0 -14.83,3.234 -19.57,9.68 -4.75,6.453 -7.11,15.39 -7.11,26.816 0,11.601 2.41,20.633 7.24,27.098 4.82,6.476 11.48,9.718 19.95,9.718 8.89,0 15.69,-3.457 20.36,-10.382 h 0.64 c -0.97,5.273 -1.46,9.98 -1.46,14.113 v 22.637 h 19.35 V 395.527 H 1103 l -3.73,9.172 h -0.82 c -4.38,-6.953 -11.07,-10.441 -20.05,-10.441" /><path
         id="path26"
         style="fill:#231f20;fill-opacity:1;fill-rule:nonzero;stroke:none"
         d="m 1190.1,395.527 h -19.29 v 92.461 h 53 v -16.062 h -33.71 v -23.84 h 31.37 v -16.004 h -31.37 v -36.555" /><path
         id="path28"
         style="fill:#231f20;fill-opacity:1;fill-rule:nonzero;stroke:none"
         d="m 1253.89,431.008 c 0,-7.004 1.15,-12.285 3.45,-15.871 2.29,-3.582 6.04,-5.379 11.22,-5.379 5.14,0 8.84,1.785 11.1,5.34 2.26,3.566 3.38,8.867 3.38,15.91 0,7 -1.13,12.246 -3.41,15.75 -2.28,3.496 -6.01,5.246 -11.2,5.246 -5.14,0 -8.85,-1.738 -11.13,-5.215 -2.27,-3.476 -3.41,-8.742 -3.41,-15.781 z m 48.88,0 c 0,-11.504 -3.03,-20.508 -9.1,-27.004 -6.07,-6.492 -14.53,-9.746 -25.36,-9.746 -6.79,0 -12.78,1.496 -17.96,4.465 -5.19,2.968 -9.18,7.246 -11.95,12.812 -2.79,5.555 -4.18,12.051 -4.18,19.473 0,11.551 3.01,20.535 9.04,26.941 6.03,6.406 14.51,9.621 25.43,9.621 6.79,0 12.77,-1.484 17.96,-4.433 5.19,-2.949 9.17,-7.188 11.95,-12.715 2.78,-5.52 4.17,-11.992 4.17,-19.414" /><path
         id="path30"
         style="fill:#231f20;fill-opacity:1;fill-rule:nonzero;stroke:none"
         d="m 1332.87,431.008 c 0,-7.004 1.15,-12.285 3.44,-15.871 2.3,-3.582 6.04,-5.379 11.23,-5.379 5.14,0 8.84,1.785 11.1,5.34 2.25,3.566 3.38,8.867 3.38,15.91 0,7 -1.13,12.246 -3.41,15.75 -2.28,3.496 -6.01,5.246 -11.2,5.246 -5.14,0 -8.85,-1.738 -11.13,-5.215 -2.27,-3.476 -3.41,-8.742 -3.41,-15.781 z m 48.88,0 c 0,-11.504 -3.03,-20.508 -9.1,-27.004 -6.07,-6.492 -14.53,-9.746 -25.36,-9.746 -6.79,0 -12.78,1.496 -17.96,4.465 -5.19,2.968 -9.18,7.246 -11.96,12.812 -2.78,5.555 -4.17,12.051 -4.17,19.473 0,11.551 3.01,20.535 9.04,26.941 6.03,6.406 14.5,9.621 25.43,9.621 6.78,0 12.77,-1.484 17.96,-4.433 5.19,-2.949 9.17,-7.188 11.95,-12.715 2.78,-5.52 4.17,-11.992 4.17,-19.414" /><path
         id="path32"
         style="fill:#231f20;fill-opacity:1;fill-rule:nonzero;stroke:none"
         d="m 1425.93,409.629 c 4.93,0 8.54,1.437 10.84,4.309 2.3,2.859 3.55,7.734 3.77,14.609 v 2.078 c 0,7.598 -1.17,13.039 -3.51,16.32 -2.34,3.289 -6.15,4.93 -11.42,4.93 -4.3,0 -7.64,-1.816 -10.02,-5.469 -2.39,-3.64 -3.58,-8.945 -3.58,-15.906 0,-6.953 1.2,-12.168 3.61,-15.645 2.4,-3.488 5.84,-5.226 10.31,-5.226 z m -6.77,-15.371 c -8.31,0 -14.83,3.234 -19.57,9.68 -4.75,6.453 -7.12,15.39 -7.12,26.816 0,11.601 2.41,20.633 7.24,27.098 4.83,6.476 11.48,9.718 19.95,9.718 8.9,0 15.69,-3.457 20.37,-10.382 h 0.64 c -0.98,5.273 -1.46,9.98 -1.46,14.113 v 22.637 h 19.35 v -98.411 h -14.8 l -3.73,9.172 h -0.82 c -4.38,-6.953 -11.07,-10.441 -20.05,-10.441" /><path
         id="path34"
         style="fill:#231f20;fill-opacity:1;fill-rule:nonzero;stroke:none"
         d="m 781.57,312.199 h 6.453 c 6.028,0 10.54,1.192 13.536,3.574 2.988,2.383 4.492,5.848 4.492,10.399 0,4.601 -1.258,7.988 -3.77,10.187 -2.508,2.188 -6.433,3.282 -11.797,3.282 h -8.914 z m 44.278,14.668 c 0,-9.953 -3.118,-17.558 -9.328,-22.832 -6.219,-5.273 -15.067,-7.902 -26.532,-7.902 h -8.418 v -32.891 h -19.601 v 92.461 H 791.5 c 11.223,0 19.746,-2.41 25.586,-7.234 5.84,-4.836 8.762,-12.031 8.762,-21.602" /><path
         id="path36"
         style="fill:#231f20;fill-opacity:1;fill-rule:nonzero;stroke:none"
         d="m 874.715,335.285 c 2.617,0 4.785,-0.195 6.523,-0.578 l -1.457,-18.086 c -1.562,0.422 -3.457,0.637 -5.691,0.637 -6.164,0 -10.957,-1.582 -14.395,-4.746 -3.437,-3.164 -5.148,-7.59 -5.148,-13.282 V 263.242 H 835.25 v 70.715 h 14.609 l 2.852,-11.894 h 0.949 c 2.188,3.964 5.156,7.156 8.887,9.578 3.73,2.422 7.781,3.644 12.168,3.644" /><path
         id="path38"
         style="fill:#231f20;fill-opacity:1;fill-rule:nonzero;stroke:none"
         d="m 903.758,298.723 c 0,-7.004 1.152,-12.285 3.445,-15.871 2.297,-3.582 6.035,-5.379 11.223,-5.379 5.144,0 8.847,1.785 11.101,5.34 2.258,3.566 3.391,8.867 3.391,15.91 0,7 -1.145,12.246 -3.418,15.75 -2.277,3.496 -6.008,5.246 -11.191,5.246 -5.149,0 -8.86,-1.739 -11.133,-5.215 -2.278,-3.477 -3.418,-8.742 -3.418,-15.781 z m 48.887,0 c 0,-11.504 -3.04,-20.508 -9.102,-27.004 -6.074,-6.492 -14.531,-9.746 -25.363,-9.746 -6.797,0 -12.782,1.496 -17.969,4.465 -5.184,2.968 -9.168,7.246 -11.953,12.812 -2.781,5.555 -4.168,12.051 -4.168,19.473 0,11.55 3.008,20.535 9.043,26.941 6.023,6.406 14.5,9.621 25.418,9.621 6.797,0 12.785,-1.484 17.969,-4.433 5.187,-2.95 9.171,-7.188 11.953,-12.715 2.785,-5.52 4.172,-11.992 4.172,-19.414" /><path
         id="path40"
         style="fill:#231f20;fill-opacity:1;fill-rule:nonzero;stroke:none"
         d="m 977.234,310.801 c 0,-3.836 0.879,-6.875 2.625,-9.102 1.75,-2.234 4.414,-3.359 8.008,-3.359 3.625,0 6.281,1.125 7.969,3.359 1.68,2.227 2.531,5.266 2.531,9.102 0,8.515 -3.508,12.773 -10.5,12.773 -7.09,0 -10.633,-4.258 -10.633,-12.773 z m -7.011,-57.547 c 0,-2.656 1.269,-4.746 3.816,-6.262 2.559,-1.523 6.133,-2.285 10.723,-2.285 6.914,0 12.336,0.957 16.258,2.852 3.92,1.894 5.88,4.492 5.88,7.773 0,2.656 -1.16,4.492 -3.48,5.508 -2.32,1.015 -5.904,1.515 -10.748,1.515 h -10 c -3.535,0 -6.504,-0.832 -8.875,-2.492 -2.383,-1.668 -3.574,-3.875 -3.574,-6.609 z m 54.577,80.703 v -9.805 l -11.07,-2.851 c 2.03,-3.164 3.03,-6.699 3.03,-10.625 0,-7.59 -2.64,-13.496 -7.94,-17.735 -5.28,-4.238 -12.632,-6.359 -22.035,-6.359 l -3.476,0.188 -2.844,0.32 c -1.981,-1.524 -2.977,-3.211 -2.977,-5.067 0,-2.773 3.543,-4.171 10.625,-4.171 h 12.017 c 7.76,0 13.68,-1.668 17.75,-5 4.06,-3.329 6.1,-8.223 6.1,-14.668 0,-8.262 -3.45,-14.676 -10.34,-19.227 -6.9,-4.551 -16.796,-6.828 -29.699,-6.828 -9.863,0 -17.402,1.719 -22.605,5.148 -5.215,3.438 -7.813,8.262 -7.813,14.453 0,4.258 1.329,7.821 3.985,10.692 2.656,2.863 6.551,4.914 11.699,6.133 -1.984,0.84 -3.711,2.226 -5.187,4.14 -1.473,1.926 -2.215,3.957 -2.215,6.106 0,2.695 0.781,4.941 2.343,6.738 1.563,1.785 3.817,3.555 6.766,5.281 -3.711,1.602 -6.648,4.172 -8.828,7.715 -2.168,3.535 -3.25,7.715 -3.25,12.52 0,7.715 2.508,13.683 7.527,17.902 5.012,4.219 12.18,6.328 21.504,6.328 1.973,0 4.328,-0.187 7.051,-0.539 2.715,-0.359 4.453,-0.625 5.212,-0.789 h 24.67" /><path
         id="path42"
         style="fill:#231f20;fill-opacity:1;fill-rule:nonzero;stroke:none"
         d="m 1070.57,335.285 c 2.62,0 4.79,-0.195 6.53,-0.578 l -1.46,-18.086 c -1.56,0.422 -3.46,0.637 -5.69,0.637 -6.16,0 -10.96,-1.582 -14.4,-4.746 -3.43,-3.164 -5.14,-7.59 -5.14,-13.282 v -35.988 h -19.3 v 70.715 h 14.61 l 2.85,-11.894 h 0.95 c 2.19,3.964 5.15,7.156 8.88,9.578 3.74,2.422 7.79,3.644 12.17,3.644" /><path
         id="path44"
         style="fill:#231f20;fill-opacity:1;fill-rule:nonzero;stroke:none"
         d="m 1122.16,296.008 -7.47,-0.254 c -5.6,-0.168 -9.77,-1.184 -12.52,-3.039 -2.74,-1.856 -4.11,-4.676 -4.11,-8.477 0,-5.437 3.13,-8.152 9.37,-8.152 4.46,0 8.04,1.277 10.71,3.855 2.68,2.571 4.02,5.989 4.02,10.247 z m 5.69,-32.766 -3.73,9.61 h -0.5 c -3.25,-4.082 -6.59,-6.922 -10.03,-8.504 -3.44,-1.582 -7.92,-2.375 -13.44,-2.375 -6.78,0 -12.14,1.945 -16.03,5.82 -3.9,3.879 -5.85,9.406 -5.85,16.574 0,7.508 2.63,13.035 7.87,16.602 5.25,3.562 13.16,5.535 23.75,5.918 l 12.27,0.379 v 3.097 c 0,7.168 -3.67,10.75 -11,10.75 -5.66,0 -12.3,-1.707 -19.92,-5.125 l -6.39,13.028 c 8.13,4.257 17.16,6.394 27.06,6.394 9.49,0 16.77,-2.07 21.83,-6.199 5.06,-4.133 7.58,-10.422 7.58,-18.848 v -47.121 h -13.47" /><path
         id="path46"
         style="fill:#231f20;fill-opacity:1;fill-rule:nonzero;stroke:none"
         d="m 1218.38,263.242 h -19.29 v 41.301 c 0,5.098 -0.86,8.926 -2.57,11.484 -1.7,2.547 -4.39,3.817 -8.06,3.817 -4.93,0 -8.51,-1.805 -10.75,-5.438 -2.23,-3.625 -3.35,-9.59 -3.35,-17.89 v -33.274 h -19.3 v 70.715 h 14.74 l 2.6,-9.055 h 1.07 c 1.9,3.254 4.64,5.793 8.23,7.629 3.58,1.836 7.69,2.754 12.33,2.754 10.58,0 17.74,-3.457 21.5,-10.383 h 1.7 c 1.91,3.293 4.7,5.84 8.39,7.657 3.68,1.816 7.85,2.726 12.49,2.726 8.01,0 14.07,-2.062 18.19,-6.172 4.11,-4.113 6.16,-10.695 6.16,-19.765 v -46.106 h -19.36 v 41.301 c 0,5.098 -0.85,8.926 -2.56,11.484 -1.71,2.547 -4.39,3.817 -8.06,3.817 -4.72,0 -8.25,-1.68 -10.59,-5.059 -2.34,-3.367 -3.51,-8.719 -3.51,-16.062 v -35.481" /><path
         id="path48"
         style="fill:#231f20;fill-opacity:1;fill-rule:nonzero;stroke:none"
         d="m 1339.52,263.242 h -19.29 v 41.301 c 0,5.098 -0.86,8.926 -2.57,11.484 -1.7,2.547 -4.39,3.817 -8.05,3.817 -4.94,0 -8.52,-1.805 -10.76,-5.438 -2.23,-3.625 -3.35,-9.59 -3.35,-17.89 v -33.274 h -19.29 v 70.715 h 14.73 l 2.6,-9.055 h 1.08 c 1.89,3.254 4.63,5.793 8.22,7.629 3.58,1.836 7.69,2.754 12.33,2.754 10.58,0 17.75,-3.457 21.51,-10.383 h 1.7 c 1.9,3.293 4.69,5.84 8.38,7.657 3.69,1.816 7.86,2.726 12.49,2.726 8.01,0 14.08,-2.062 18.19,-6.172 4.11,-4.113 6.16,-10.695 6.16,-19.765 v -46.106 h -19.36 v 41.301 c 0,5.098 -0.85,8.926 -2.55,11.484 -1.71,2.547 -4.4,3.817 -8.07,3.817 -4.72,0 -8.25,-1.68 -10.59,-5.059 -2.34,-3.367 -3.51,-8.719 -3.51,-16.062 v -35.481" /><path
         id="path50"
         style="fill:#231f20;fill-opacity:1;fill-rule:nonzero;stroke:none"
         d="m 1427.07,321.555 c -4.09,0 -7.3,-1.301 -9.62,-3.887 -2.32,-2.598 -3.64,-6.27 -3.99,-11.035 h 27.07 c -0.07,4.765 -1.32,8.437 -3.73,11.035 -2.4,2.586 -5.64,3.887 -9.73,3.887 z m 2.71,-59.582 c -11.38,0 -20.28,3.144 -26.69,9.425 -6.4,6.29 -9.61,15.184 -9.61,26.688 0,11.855 2.96,21.016 8.89,27.48 5.92,6.477 14.11,9.719 24.57,9.719 9.99,0 17.77,-2.851 23.34,-8.547 5.57,-5.691 8.34,-13.554 8.34,-23.582 v -9.367 h -45.6 c 0.22,-5.476 1.84,-9.766 4.88,-12.84 3.03,-3.078 7.29,-4.609 12.77,-4.609 4.26,0 8.28,0.437 12.08,1.328 3.8,0.879 7.75,2.293 11.89,4.238 v -14.933 c -3.37,-1.688 -6.98,-2.938 -10.82,-3.758 -3.83,-0.82 -8.51,-1.242 -14.04,-1.242" /></g></g></svg>